<mxfile host="app.diagrams.net" modified="2023-05-02T19:51:53.472Z" agent="Mozilla/5.0 (X11; CrOS x86_64 14541.0.0) AppleWebKit/537.36 (KHTML, like Gecko) Chrome/113.0.0.0 Safari/537.36" etag="uyNrcM1IkSbqoLKPhBZR" version="21.2.4" type="github">
  <diagram name="Page-1" id="G3pnUd8i2sPkFldAUYga">
    <mxGraphModel dx="957" dy="538" grid="1" gridSize="10" guides="1" tooltips="1" connect="1" arrows="1" fold="1" page="1" pageScale="1" pageWidth="827" pageHeight="1169" math="0" shadow="1">
      <root>
        <mxCell id="0" />
        <mxCell id="1" parent="0" />
        <mxCell id="6SBWbRUuGsr4M2CHqDux-1" value="" style="triangle;whiteSpace=wrap;html=1;rotation=-90;fillColor=#9933FF;" vertex="1" parent="1">
          <mxGeometry x="240" y="370" width="280" height="350" as="geometry" />
        </mxCell>
        <mxCell id="6SBWbRUuGsr4M2CHqDux-2" value="&lt;font style=&quot;font-size: 22px;&quot;&gt;Privacy&lt;/font&gt;" style="whiteSpace=wrap;html=1;" vertex="1" parent="1">
          <mxGeometry x="610" y="660" width="120" height="60" as="geometry" />
        </mxCell>
        <mxCell id="6SBWbRUuGsr4M2CHqDux-4" value="&lt;font style=&quot;font-size: 22px;&quot;&gt;Speed &amp;amp; Reliability&lt;/font&gt;" style="whiteSpace=wrap;html=1;" vertex="1" parent="1">
          <mxGeometry x="320" y="330" width="120" height="60" as="geometry" />
        </mxCell>
        <mxCell id="6SBWbRUuGsr4M2CHqDux-5" value="&lt;font style=&quot;font-size: 22px;&quot;&gt;Cost&lt;/font&gt;" style="whiteSpace=wrap;html=1;" vertex="1" parent="1">
          <mxGeometry x="40" y="660" width="120" height="60" as="geometry" />
        </mxCell>
        <mxCell id="6SBWbRUuGsr4M2CHqDux-11" value="" style="endArrow=none;html=1;rounded=0;entryX=1;entryY=0.5;entryDx=0;entryDy=0;exitX=0.001;exitY=0.006;exitDx=0;exitDy=0;exitPerimeter=0;dashed=1;" edge="1" parent="1" source="6SBWbRUuGsr4M2CHqDux-1" target="6SBWbRUuGsr4M2CHqDux-1">
          <mxGeometry width="50" height="50" relative="1" as="geometry">
            <mxPoint x="210" y="680" as="sourcePoint" />
            <mxPoint x="440" y="510" as="targetPoint" />
            <Array as="points">
              <mxPoint x="380" y="580" />
            </Array>
          </mxGeometry>
        </mxCell>
        <mxCell id="6SBWbRUuGsr4M2CHqDux-12" value="" style="endArrow=none;html=1;rounded=0;entryX=0.001;entryY=1.002;entryDx=0;entryDy=0;exitX=1;exitY=0.5;exitDx=0;exitDy=0;entryPerimeter=0;jumpStyle=none;dashed=1;" edge="1" parent="1" source="6SBWbRUuGsr4M2CHqDux-1" target="6SBWbRUuGsr4M2CHqDux-1">
          <mxGeometry width="50" height="50" relative="1" as="geometry">
            <mxPoint x="221" y="696" as="sourcePoint" />
            <mxPoint x="390" y="415" as="targetPoint" />
            <Array as="points">
              <mxPoint x="380" y="580" />
            </Array>
          </mxGeometry>
        </mxCell>
        <mxCell id="6SBWbRUuGsr4M2CHqDux-13" value="&lt;font style=&quot;font-size: 22px;&quot;&gt;&lt;font color=&quot;#ffffff&quot;&gt;Clearnet&lt;/font&gt;&lt;br&gt;&lt;/font&gt;" style="whiteSpace=wrap;html=1;rotation=-45;fillColor=none;strokeColor=none;" vertex="1" parent="1">
          <mxGeometry x="260" y="530" width="120" height="60" as="geometry" />
        </mxCell>
        <mxCell id="6SBWbRUuGsr4M2CHqDux-14" value="&lt;font style=&quot;font-size: 22px;&quot;&gt;&lt;font color=&quot;#ffffff&quot;&gt;VPN&lt;/font&gt;&lt;br&gt;&lt;/font&gt;" style="whiteSpace=wrap;html=1;rotation=45;fillColor=none;strokeColor=none;" vertex="1" parent="1">
          <mxGeometry x="380" y="530" width="120" height="60" as="geometry" />
        </mxCell>
        <mxCell id="6SBWbRUuGsr4M2CHqDux-17" value="&lt;font style=&quot;font-size: 22px;&quot;&gt;&lt;font color=&quot;#ffffff&quot;&gt;Tor&lt;/font&gt;&lt;br&gt;&lt;/font&gt;" style="whiteSpace=wrap;html=1;rotation=0;fillColor=none;strokeColor=none;" vertex="1" parent="1">
          <mxGeometry x="320" y="620" width="120" height="60" as="geometry" />
        </mxCell>
      </root>
    </mxGraphModel>
  </diagram>
</mxfile>
